/* XPM */
static char *dummy[]={
"10 10 10 1",
"1 c #FF0000",
"  c #000000",
"a c #370617",
"b c #6A040F",
"c c #9D0208",
"d c #D00000",
"e c #DC2F02",
"f c #E85D04",
"g c #F48C06",
"h c #FAA307",

"1111111111",
"1111111111",
"1111111111",
"1111111111",
"          ",
"          ",
"          ",
"hhhhhhhhhh",
"hhhhhhhhhh",
"hhhhhhhhhh"};
